<?xml version="1.0" encoding="utf-8"?>
<!-- Generator: Adobe Illustrator 14.0.0, SVG Export Plug-In . SVG Version: 6.00 Build 43363)  -->
<!DOCTYPE svg PUBLIC "-//W3C//DTD SVG 1.1//EN" "http://www.w3.org/Graphics/SVG/1.1/DTD/svg11.dtd">
<svg version="1.1" id="Ebene_1" xmlns="http://www.w3.org/2000/svg" xmlns:xlink="http://www.w3.org/1999/xlink" x="0px" y="0px"
	 width="165.124px" height="55.042px" viewBox="4.828 0.348 165.124 55.042" enable-background="new 4.828 0.348 165.124 55.042"
	 xml:space="preserve">
<g>
	<g>
		<g>
			<defs>
				<path id="SVGID_1_" d="M136.946,10.111c-0.512,0.12-1.454,0.335-1.998,0.82c-0.545,0.484-0.911,0.752-1.061,1.148
					c-0.148,0.397-0.676,1.291-0.676,1.291s0.432,0.723,0.528,1.339c0.095,0.617,0.501,2.199,0.886,2.854
					c0.388,0.656,1.39,1.678,2.181,2.025c0.791,0.347,3.008,1.272,4.455,1.639c1.448,0.367,1.718,0.174,1.91,0.328
					c0.192,0.155-0.058,0.618-0.444,1.003c-0.385,0.385-2.063,2.044-2.257,2.218c-0.191,0.174-1.001-0.039-1.677-0.27
					s-1.678-0.618-2.122-0.674c-0.444-0.059-0.884-0.063-0.884-0.063s-0.58,0.526-0.561,1.684c0.016,1.157,0.201,1.979,0.68,2.696
					l0.103,0.119c0,0,0.354,0.617,1.125,1.157c0.772,0.541,2.681,1.582,3.954,1.718c1.274,0.133,3.362-0.68,4.32-1.098
					c0.958-0.42,3.992-1.976,3.992-1.976l1.296,2.374c0,0-0.559,1.336-1.038,2.235c-0.479,0.897-1.257,2.673-1.737,3.53
					c-0.478,0.858-1.295,2.354-1.376,3.292c-0.079,0.938,0.02,2.533,0.02,3.631c0,1.096,0.179,3.849-0.159,4.31
					c-0.34,0.458-0.479,0.837-1.478,0.858c-0.997,0.019-2.413-0.021-2.593,0.119c-0.179,0.14-0.864,0.942-0.475,2.173
					c0.388,1.231,0.714,2.115,1.273,2.655c0.558,0.538,1.176,0.777,2.415,0.897c1.236,0.12,3.411,0.16,4.588-0.219
					c0.819-0.239,1.157-0.72,1.616-1.816c0.459-1.099,1.716-3.931,2.235-4.789c0.519-0.856,1.736-3.611,2.035-4.088
					c0.299-0.479,1.038-1.996,1.038-1.996s0.808,1.465,1.375,2.185c0.57,0.717,2.306,2.454,2.875,2.962
					c0.569,0.51,0.929,1.079,0.45,1.615c-0.48,0.539-2.146,1.886-2.599,2.52c0,0-0.083,0.421,0.846,1.261
					c0.929,0.838,1.781,1.426,2.471,1.486c0.688,0.061,1.944,0.032,2.692-0.329c0.748-0.358,2.454-1.585,3.083-2.273
					c0.628-0.689,1.107-1.705,0.6-3.201c-0.51-1.497-1.497-4.191-2.005-5.867c-0.51-1.676-1.497-3.981-1.976-5.297
					c-0.479-1.316-0.689-1.796-1.048-2.364s-0.688-1.137-0.448-1.736c0.238-0.597-0.21-1.734-0.689-2.512
					c-0.478-0.778-1.466-3.262-1.886-4.849c-0.419-1.586-1.466-5.925-1.466-7.451c0-1.526-0.209-4.663-0.209-4.663
					s-7.525,0.329-8.222,0.401c-0.697,0.072-3.36,0.312-5.036,0.431c-1.677,0.12-5.837,0.749-6.495,0.24
					C138.712,13.286,136.946,10.111,136.946,10.111z"/>
			</defs>
			<clipPath id="SVGID_2_">
				<use xlink:href="#SVGID_1_"  overflow="visible"/>
			</clipPath>
			<g clip-path="url(#SVGID_2_)">
				<g>
					<g>
						<rect x="163.421" y="52.382" fill="#FFFFFF" width="2.844" height="2.844"/>
						<rect x="160.574" y="52.382" width="2.845" height="2.844"/>
						<rect x="157.733" y="52.382" fill="#FFFFFF" width="2.845" height="2.844"/>
						<rect x="152.044" y="52.382" fill="#FFFFFF" width="2.844" height="2.844"/>
						<rect x="149.197" y="52.382" width="2.846" height="2.844"/>
						<rect x="146.355" y="52.382" fill="#FFFFFF" width="2.845" height="2.844"/>
						<rect x="143.509" y="52.382" width="2.845" height="2.844"/>
						<rect x="140.668" y="52.382" fill="#FFFFFF" width="2.844" height="2.844"/>
						<line fill="none" x1="137.825" y1="52.382" x2="137.825" y2="55.226"/>
					</g>
					<g>
						<rect x="166.262" y="49.535" fill="#FFFFFF" width="2.847" height="2.847"/>
						<rect x="163.421" y="49.535" width="2.844" height="2.847"/>
						<rect x="160.574" y="49.535" fill="#FFFFFF" width="2.845" height="2.847"/>
						<rect x="157.733" y="49.535" width="2.845" height="2.847"/>
						<rect x="152.044" y="49.535" width="2.844" height="2.847"/>
						<rect x="149.197" y="49.535" fill="#FFFFFF" width="2.846" height="2.847"/>
						<rect x="146.355" y="49.535" width="2.845" height="2.847"/>
						<rect x="143.509" y="49.535" fill="#FFFFFF" width="2.845" height="2.847"/>
						<rect x="140.668" y="49.535" width="2.844" height="2.847"/>
						<rect x="137.822" y="49.535" fill="#FFFFFF" width="2.844" height="2.847"/>
						<line fill="none" x1="137.825" y1="49.535" x2="137.825" y2="52.382"/>
					</g>
				</g>
				<g>
					<g>
						<rect x="166.262" y="46.687" width="2.847" height="2.846"/>
						<rect x="163.421" y="46.687" fill="#FFFFFF" width="2.844" height="2.846"/>
						<rect x="160.574" y="46.687" width="2.845" height="2.846"/>
						<rect x="157.733" y="46.687" fill="#FFFFFF" width="2.845" height="2.846"/>
						<rect x="152.044" y="46.687" fill="#FFFFFF" width="2.844" height="2.846"/>
						<rect x="149.197" y="46.687" width="2.846" height="2.846"/>
						<rect x="146.355" y="46.687" fill="#FFFFFF" width="2.845" height="2.846"/>
						<rect x="143.509" y="46.687" width="2.845" height="2.846"/>
						<rect x="140.668" y="46.687" fill="#FFFFFF" width="2.844" height="2.846"/>
						<line fill="none" x1="137.825" y1="46.687" x2="137.825" y2="49.533"/>
					</g>
					<g>
						<rect x="166.262" y="43.842" fill="#FFFFFF" width="2.847" height="2.844"/>
						<rect x="163.421" y="43.842" width="2.844" height="2.844"/>
						<rect x="160.574" y="43.842" fill="#FFFFFF" width="2.845" height="2.844"/>
						<rect x="157.733" y="43.842" width="2.845" height="2.844"/>
						<rect x="154.885" y="43.842" fill="#FFFFFF" width="2.847" height="2.844"/>
						<rect x="152.044" y="43.842" width="2.844" height="2.844"/>
						<rect x="149.197" y="43.842" fill="#FFFFFF" width="2.846" height="2.844"/>
						<rect x="146.355" y="43.842" width="2.845" height="2.844"/>
					</g>
				</g>
				<g>
					<g>
						<rect x="166.262" y="40.992" width="2.847" height="2.844"/>
						<rect x="163.421" y="40.992" fill="#FFFFFF" width="2.844" height="2.844"/>
						<rect x="160.574" y="40.992" width="2.845" height="2.844"/>
						<rect x="157.733" y="40.992" fill="#FFFFFF" width="2.845" height="2.844"/>
						<rect x="154.885" y="40.992" width="2.847" height="2.844"/>
						<rect x="152.044" y="40.992" fill="#FFFFFF" width="2.844" height="2.844"/>
						<rect x="149.197" y="40.992" width="2.846" height="2.844"/>
						<rect x="146.355" y="40.992" fill="#FFFFFF" width="2.845" height="2.844"/>
					</g>
					<g>
						<rect x="166.262" y="38.148" fill="#FFFFFF" width="2.847" height="2.843"/>
						<rect x="163.421" y="38.148" width="2.844" height="2.843"/>
						<rect x="160.574" y="38.148" fill="#FFFFFF" width="2.845" height="2.843"/>
						<rect x="157.733" y="38.148" width="2.845" height="2.843"/>
						<rect x="154.885" y="38.148" fill="#FFFFFF" width="2.847" height="2.843"/>
						<rect x="152.044" y="38.148" width="2.844" height="2.843"/>
						<rect x="149.197" y="38.148" fill="#FFFFFF" width="2.846" height="2.843"/>
						<rect x="146.355" y="38.148" width="2.845" height="2.843"/>
					</g>
				</g>
				<g>
					<g>
						<rect x="163.421" y="35.299" fill="#FFFFFF" width="2.844" height="2.844"/>
						<rect x="160.574" y="35.299" width="2.845" height="2.844"/>
						<rect x="157.733" y="35.299" fill="#FFFFFF" width="2.845" height="2.844"/>
						<rect x="154.885" y="35.299" width="2.847" height="2.844"/>
						<rect x="152.044" y="35.299" fill="#FFFFFF" width="2.844" height="2.844"/>
						<rect x="149.197" y="35.299" width="2.846" height="2.844"/>
						<rect x="146.355" y="35.299" fill="#FFFFFF" width="2.845" height="2.844"/>
					</g>
					<g>
						<rect x="166.262" y="32.454" fill="#FFFFFF" width="2.847" height="2.845"/>
						<rect x="163.421" y="32.454" width="2.844" height="2.845"/>
						<rect x="160.574" y="32.454" fill="#FFFFFF" width="2.845" height="2.845"/>
						<rect x="157.733" y="32.454" width="2.845" height="2.845"/>
						<rect x="154.885" y="32.454" fill="#FFFFFF" width="2.847" height="2.845"/>
						<rect x="152.044" y="32.454" width="2.844" height="2.845"/>
						<rect x="149.197" y="32.454" fill="#FFFFFF" width="2.846" height="2.845"/>
						<rect x="146.355" y="32.454" width="2.845" height="2.845"/>
					</g>
				</g>
				<g>
					<g>
						<rect x="163.421" y="29.614" fill="#FFFFFF" width="2.844" height="2.844"/>
						<rect x="160.574" y="29.614" width="2.845" height="2.844"/>
						<rect x="157.733" y="29.614" fill="#FFFFFF" width="2.845" height="2.844"/>
						<rect x="154.885" y="29.614" width="2.847" height="2.844"/>
						<rect x="152.044" y="29.614" fill="#FFFFFF" width="2.844" height="2.844"/>
						<rect x="149.197" y="29.614" width="2.846" height="2.844"/>
						<rect x="146.355" y="29.614" fill="#FFFFFF" width="2.845" height="2.844"/>
						<rect x="143.509" y="29.614" width="2.845" height="2.844"/>
						<rect x="140.668" y="29.614" fill="#FFFFFF" width="2.844" height="2.844"/>
						<rect x="137.822" y="29.614" width="2.844" height="2.844"/>
						<rect x="134.982" y="29.614" fill="#FFFFFF" width="2.844" height="2.844"/>
					</g>
					<g>
						<rect x="160.574" y="26.771" fill="#FFFFFF" width="2.845" height="2.842"/>
						<rect x="157.733" y="26.771" width="2.845" height="2.842"/>
						<rect x="154.885" y="26.771" fill="#FFFFFF" width="2.847" height="2.842"/>
						<rect x="152.044" y="26.771" width="2.844" height="2.842"/>
						<rect x="149.197" y="26.771" fill="#FFFFFF" width="2.846" height="2.842"/>
						<rect x="146.355" y="26.771" width="2.845" height="2.842"/>
						<rect x="143.509" y="26.771" fill="#FFFFFF" width="2.845" height="2.842"/>
						<rect x="140.668" y="26.771" width="2.844" height="2.842"/>
						<rect x="137.822" y="26.771" fill="#FFFFFF" width="2.844" height="2.842"/>
						<rect x="134.982" y="26.771" width="2.844" height="2.842"/>
					</g>
				</g>
				<g>
					<g>
						<rect x="160.574" y="23.922" width="2.845" height="2.845"/>
						<rect x="157.733" y="23.922" fill="#FFFFFF" width="2.845" height="2.845"/>
						<rect x="154.885" y="23.922" width="2.847" height="2.845"/>
						<rect x="152.044" y="23.922" fill="#FFFFFF" width="2.844" height="2.845"/>
						<rect x="149.197" y="23.922" width="2.846" height="2.845"/>
						<rect x="146.355" y="23.922" fill="#FFFFFF" width="2.845" height="2.845"/>
						<rect x="143.509" y="23.922" width="2.845" height="2.845"/>
						<rect x="140.668" y="23.922" fill="#FFFFFF" width="2.844" height="2.845"/>
						<rect x="137.822" y="23.922" width="2.844" height="2.845"/>
						<rect x="134.982" y="23.922" fill="#FFFFFF" width="2.844" height="2.845"/>
					</g>
					<g>
						<rect x="157.733" y="21.076" width="2.845" height="2.846"/>
						<rect x="154.885" y="21.076" fill="#FFFFFF" width="2.847" height="2.846"/>
						<rect x="152.044" y="21.076" width="2.844" height="2.846"/>
						<rect x="149.197" y="21.076" fill="#FFFFFF" width="2.846" height="2.846"/>
						<rect x="146.355" y="21.076" width="2.845" height="2.846"/>
						<rect x="143.509" y="21.076" fill="#FFFFFF" width="2.845" height="2.846"/>
						<rect x="140.668" y="21.076" width="2.844" height="2.846"/>
						<rect x="137.822" y="21.076" fill="#FFFFFF" width="2.844" height="2.846"/>
					</g>
				</g>
				<g>
					<g>
						<rect x="157.733" y="18.228" fill="#FFFFFF" width="2.845" height="2.844"/>
						<rect x="154.885" y="18.228" width="2.847" height="2.844"/>
						<rect x="152.044" y="18.228" fill="#FFFFFF" width="2.844" height="2.844"/>
						<rect x="149.197" y="18.228" width="2.846" height="2.844"/>
						<rect x="146.355" y="18.228" fill="#FFFFFF" width="2.845" height="2.844"/>
						<rect x="143.509" y="18.228" width="2.845" height="2.844"/>
						<rect x="140.668" y="18.228" fill="#FFFFFF" width="2.844" height="2.844"/>
						<rect x="137.822" y="18.228" width="2.844" height="2.844"/>
						<rect x="134.982" y="18.228" fill="#FFFFFF" width="2.844" height="2.844"/>
					</g>
					<g>
						<rect x="157.733" y="15.382" width="2.845" height="2.844"/>
						<rect x="154.885" y="15.382" fill="#FFFFFF" width="2.847" height="2.844"/>
						<rect x="152.044" y="15.382" width="2.844" height="2.844"/>
						<rect x="149.197" y="15.382" fill="#FFFFFF" width="2.846" height="2.844"/>
						<rect x="146.355" y="15.382" width="2.845" height="2.844"/>
						<rect x="143.509" y="15.382" fill="#FFFFFF" width="2.845" height="2.844"/>
						<rect x="140.668" y="15.382" width="2.844" height="2.844"/>
						<rect x="137.822" y="15.382" fill="#FFFFFF" width="2.844" height="2.844"/>
						<rect x="134.982" y="15.382" width="2.844" height="2.844"/>
					</g>
				</g>
				<g>
					<g>
						<rect x="157.733" y="12.534" fill="#FFFFFF" width="2.845" height="2.846"/>
						<rect x="154.885" y="12.534" width="2.847" height="2.846"/>
						<rect x="152.044" y="12.534" fill="#FFFFFF" width="2.844" height="2.846"/>
						<rect x="149.197" y="12.534" width="2.846" height="2.846"/>
						<rect x="146.355" y="12.534" fill="#FFFFFF" width="2.845" height="2.846"/>
						<rect x="143.509" y="12.534" width="2.845" height="2.846"/>
						<rect x="140.668" y="12.534" fill="#FFFFFF" width="2.844" height="2.846"/>
						<rect x="137.822" y="12.534" width="2.844" height="2.846"/>
						<rect x="134.982" y="12.534" fill="#FFFFFF" width="2.844" height="2.846"/>
					</g>
					<g>
						<rect x="154.885" y="9.688" fill="#FFFFFF" width="2.847" height="2.845"/>
						<rect x="152.044" y="9.688" width="2.844" height="2.845"/>
						<rect x="149.197" y="9.688" fill="#FFFFFF" width="2.846" height="2.845"/>
						<rect x="137.822" y="9.688" fill="#FFFFFF" width="2.844" height="2.845"/>
						<rect x="134.982" y="9.688" width="2.844" height="2.845"/>
						<rect x="132.13" y="26.771" fill="#FFFFFF" width="2.845" height="2.842"/>
						<rect x="132.13" y="15.382" fill="#FFFFFF" width="2.845" height="2.844"/>
						<rect x="132.13" y="12.534" width="2.845" height="2.846"/>
						<rect x="132.13" y="9.688" fill="#FFFFFF" width="2.845" height="2.845"/>
					</g>
				</g>
			</g>
		</g>
	</g>
	<path fill="none" stroke="#000000" stroke-width="0.3011" stroke-linecap="round" stroke-linejoin="round" d="M136.956,10.095
		c-0.512,0.12-1.453,0.335-1.997,0.82c-0.544,0.484-0.911,0.751-1.06,1.149s-0.675,1.292-0.675,1.292s0.43,0.722,0.526,1.338
		c0.097,0.618,0.5,2.199,0.887,2.854c0.386,0.656,1.388,1.679,2.178,2.025c0.793,0.348,3.009,1.274,4.457,1.641
		c1.446,0.366,1.717,0.174,1.91,0.327c0.192,0.154-0.059,0.618-0.445,1.004c-0.384,0.386-2.063,2.044-2.256,2.219
		c-0.192,0.174-1.002-0.038-1.677-0.271c-0.674-0.231-1.677-0.618-2.121-0.675c-0.445-0.057-0.885-0.062-0.885-0.062
		s-0.579,0.524-0.562,1.683c0.019,1.157,0.092,1.996,0.682,2.653l0.102,0.163c0,0,0.354,0.617,1.124,1.156
		c0.772,0.54,2.683,1.582,3.953,1.717c1.274,0.135,3.362-0.679,4.32-1.098c0.956-0.418,3.99-1.974,3.99-1.974l1.296,2.372
		c0,0-0.559,1.338-1.038,2.236c-0.479,0.896-1.256,2.673-1.734,3.531c-0.479,0.857-1.296,2.354-1.376,3.293
		c-0.081,0.937,0.019,2.531,0.019,3.629c0,1.098,0.18,3.85-0.158,4.31c-0.341,0.459-0.479,0.838-1.477,0.858
		c-0.998,0.018-2.415-0.021-2.594,0.119c-0.179,0.139-0.866,0.941-0.476,2.172c0.39,1.232,0.694,2.183,1.252,2.72
		c0.557,0.54,1.198,0.714,2.435,0.832c1.237,0.122,3.412,0.161,4.588-0.217c0.818-0.24,1.157-0.718,1.615-1.815
		c0.46-1.099,1.717-3.931,2.235-4.788c0.521-0.859,1.737-3.613,2.036-4.089c0.299-0.48,1.037-1.996,1.037-1.996
		s0.81,1.466,1.376,2.185c0.569,0.718,2.305,2.454,2.874,2.961c0.568,0.51,0.927,1.077,0.449,1.617
		c-0.479,0.538-2.146,1.886-2.6,2.519c0,0-0.08,0.423,0.848,1.26c0.928,0.838,1.782,1.429,2.47,1.488
		c0.688,0.061,1.945,0.03,2.692-0.329c0.75-0.358,2.455-1.586,3.082-2.274c0.629-0.688,1.109-1.706,0.6-3.203
		c-0.508-1.496-1.497-4.189-2.004-5.864c-0.51-1.676-1.497-3.98-1.976-5.298c-0.479-1.315-0.689-1.795-1.048-2.363
		c-0.358-0.569-0.688-1.138-0.448-1.736c0.239-0.599-0.21-1.736-0.689-2.514c-0.479-0.777-1.466-3.261-1.886-4.848
		c-0.418-1.586-1.465-5.926-1.465-7.452c0-1.525-0.21-4.663-0.21-4.663s-7.525,0.33-8.221,0.402
		c-0.696,0.071-3.358,0.312-5.035,0.431c-1.676,0.121-5.835,0.748-6.494,0.239C138.725,13.271,136.956,10.095,136.956,10.095z"/>
	<g id="Krallen">
		<path fill="#FAE60F" stroke="#000000" stroke-width="0.2007" d="M133.225,13.355c-0.016-0.018-0.03-0.034-0.045-0.053
			c-0.377-0.436-0.773-1.091-0.644-1.221c0.134-0.135,0.644-0.06,0.988,0c0.344,0.06,0.316,0.226,0.166,0.51
			c-0.15,0.283-0.494,0.73-0.494,0.73"/>
		<path fill="#FAE60F" stroke="#000000" stroke-width="0.2007" d="M133.827,12.145c-0.084-0.152-0.696-0.876-0.707-1.114
			c-0.012-0.237,0.097-0.35,0.328-0.259c0.23,0.09,0.84,0.316,1.005,0.417C134.617,11.291,133.827,12.145,133.827,12.145z"/>
		<path fill="#FAE60F" stroke="#000000" stroke-width="0.2007" d="M134.503,11.209c0,0-0.066-0.287-0.245-0.547
			c-0.18-0.26-0.3-0.788-0.109-0.867c0.188-0.08,0.458-0.021,0.737,0.189c0.279,0.21,0.768,0.34,0.559,0.559
			C135.236,10.762,134.503,11.209,134.503,11.209z"/>
		<path fill="#FAE60F" stroke="#000000" stroke-width="0.2007" d="M135.637,10.357c-0.109-0.223-0.542-0.97-0.482-1.219
			c0.06-0.25,0.398-0.177,0.659-0.099c0.291,0.085,0.579,0.319,0.768,0.588c0.19,0.269,0.339,0.479,0.111,0.509
			C136.462,10.166,135.637,10.357,135.637,10.357z"/>
		<path fill="#FAE60F" stroke="#000000" stroke-width="0.2007" d="M135.772,23.771c-0.234-0.047-1.111,0.004-1.309,0.085
			c-0.198,0.082-0.445,0.207-0.372,0.384c0.066,0.167,0.9,0.399,1.071,0.496c0.061,0.034,0.373-0.438,0.489-0.613
			C135.767,23.949,135.772,23.771,135.772,23.771z"/>
		<path fill="#FAE60F" stroke="#000000" stroke-width="0.2007" d="M135.239,24.688c-0.222,0.036-0.639,0.065-0.952,0.124
			c-0.314,0.059-0.641,0.257-0.456,0.466c0.188,0.21,0.46,0.387,0.898,0.456c0.302,0.046,0.439,0.057,0.439,0.057L135.239,24.688z"
			/>
		<path fill="#FAE60F" stroke="#000000" stroke-width="0.2007" d="M135.19,25.856c0,0-0.512,0.079-0.802,0.243
			c-0.293,0.163-0.631,0.326-0.561,0.511c0.069,0.187,0.4,0.327,0.745,0.385c0.368,0.06,0.728,0.101,0.728,0.101L135.19,25.856z"/>
		<path fill="#FAE60F" stroke="#000000" stroke-width="0.2007" d="M135.39,27.154c-0.298,0.198-0.674,0.392-0.934,0.568
			c-0.159,0.108-0.602,0.431,0.075,0.597c0.448,0.11,0.7,0.027,0.96-0.018c0.26-0.045,0.475-0.153,0.37-0.321
			C135.65,27.641,135.39,27.154,135.39,27.154z"/>
		<path fill="#FAE60F" stroke="#000000" stroke-width="0.2007" d="M143.611,53.628c-0.679,0.019-2.266,0.276-2.307-0.023
			c-0.039-0.299,0.358-0.519,0.639-0.739c0.279-0.219,0.437-0.565,0.817-0.238C143.095,52.913,143.611,53.628,143.611,53.628"/>
		<path fill="#FAE60F" stroke="#000000" stroke-width="0.2007" d="M142.477,52.402c-0.47-0.066-1.707,0.113-1.826-0.066
			s0.327-0.522,0.518-0.718c0.178-0.185,0.824-0.539,0.824-0.539L142.477,52.402"/>
		<path fill="#FAE60F" stroke="#000000" stroke-width="0.2007" d="M142.002,51.022c-0.658,0.06-1.812,0.213-1.792-0.064
			c0.021-0.28,0.642-0.737,0.882-0.867c0.266-0.144,0.579-0.189,0.579-0.189L142.002,51.022z"/>
		<path fill="#FAE60F" stroke="#000000" stroke-width="0.2007" d="M142.166,48.542c-0.36,0.021-1.038,0.399-1.376,0.579
			c-0.34,0.181-0.919,0.539-0.46,0.58c0.46,0.039,1.341,0.202,1.341,0.202s0.054-0.321,0.176-0.662
			C141.966,48.909,142.166,48.542,142.166,48.542z"/>
		<path fill="#FAE60F" stroke="#000000" stroke-width="0.2007" d="M159.167,50.502c-0.196,0.163-0.605,0.834-0.628,1.054
			c-0.023,0.219-0.074,0.753,0.111,0.649c0.188-0.104,0.971-0.72,0.971-0.72L159.167,50.502z"/>
		<path fill="#FAE60F" stroke="#000000" stroke-width="0.2007" d="M159.71,51.488c-0.196,0.23-0.452,0.453-0.534,0.742
			c-0.081,0.288-0.139,0.683-0.055,0.812c0.08,0.127,0.253-0.059,0.521-0.255c0.267-0.199,0.812-0.628,0.812-0.628L159.71,51.488z"
			/>
		<path fill="#FAE60F" stroke="#000000" stroke-width="0.2007" d="M160.391,52.21c-0.147,0.297-0.298,0.564-0.368,0.868
			c-0.069,0.3-0.174,0.753-0.058,0.893c0.114,0.138,0.348-0.07,0.545-0.417c0.197-0.35,0.662-0.79,0.662-0.79L160.391,52.21z"/>
		<path fill="#FAE60F" stroke="#000000" stroke-width="0.2007" d="M161.173,52.764c0,0-0.011,0.405-0.036,0.708
			c-0.022,0.301-0.138,1.114,0.163,0.87c0.302-0.244,0.883-0.94,0.94-1.033C162.298,53.217,161.173,52.764,161.173,52.764z"/>
	</g>
	<path id="Zunge" fill="#D7241E" stroke="#000000" stroke-width="0.2394" stroke-linejoin="round" d="M140.526,5.507
		c0.063,0.671,1.062,2.346,1.412,2.68c0.556,0.532,1.325,0.856,2.454,0.875c1.242,0.021,4.006-0.141,4.684-0.197
		c0.677-0.056,1.606-0.085,1.156-0.31c-0.452-0.226-1.691-0.339-3.076-0.282c-1.381,0.056-3.413,0.113-3.864-0.226
		c-0.452-0.339-1.281-1.404-1.666-1.89C141.217,5.637,140.498,5.2,140.526,5.507z"/>
	
		<polygon id="Kragen" fill="#FAE60F" stroke="#81817D" stroke-width="0.3011" stroke-linecap="square" stroke-linejoin="round" points="
		150.869,11.23 150.902,13.068 159.122,12.667 158.998,10.801 	"/>
	<path id="Kopf" stroke="#000000" stroke-width="0.2394" d="M158.924,10.439c0,0-0.02,0.002-0.058,0.004
		c-0.538,0.024-4.71,0.287-5.924,0.342c-1.298,0.058-4.609,0.277-4.609,0.277s-0.365-0.103-0.657-0.424
		c-0.291-0.32-0.697-0.883-0.272-0.84c0.423,0.044,1.382-0.065,1.906-0.065c0.525,0,2.525,0.03,2.525-0.393
		c0-0.423-0.686-1.357-1.255-1.692c-0.569-0.336-2.152-0.412-3.211-0.486c-0.96-0.068-1.823-0.433-2.247-0.958
		s-1.123-2.437-1.21-2.67c0,0,1.079-0.03,1.75-0.03c0.672,0,2.917,0.043,3.239-0.174c0.321-0.219,0.649-0.73,0.926-0.876
		c0.277-0.146,1.745-0.218,2.285-0.233c0.539-0.014,1.925,0,2.406,0c0.482,0,1.444,0.102,1.593-0.043
		c0.144-0.146,0.299-0.564,0.816-0.554c0.789,0.015,1.027,0.434,1.101,0.726c0.071,0.292-0.01,0.972-0.051,1.215
		c-0.044,0.266-0.03,0.525,0.161,0.715c0.189,0.189,0.334,1.049,0.451,1.604L158.924,10.439z"/>
	<path fill="#FAE60F" stroke="#000000" stroke-width="0.2036" d="M156.604,2.14l0.035,1.471c0,0,0.509,0.008,0.673-0.068
		c0.301-0.142,0.415-0.37,0.411-0.686c-0.002-0.433-0.192-0.704-0.438-0.768C157.114,2.046,156.604,2.14,156.604,2.14"/>
	<path fill="#FFFFFF" stroke="#000000" stroke-width="0.2394" d="M151.39,4.263c0,0.456-0.369,0.826-0.827,0.826
		c-0.455,0-0.825-0.37-0.825-0.826c0-0.457,0.371-0.826,0.825-0.826C151.021,3.437,151.39,3.806,151.39,4.263z"/>
	<path fill="#FAE60F" stroke="#000000" stroke-width="0.2036" d="M151.167,3.353c0,0,0.12,0.233,0.245,0.357s0.352,0.149,0.625,0.17
		c0.274,0.02,0.83-0.037,0.83-0.037l0.04-0.594l-1.417-0.01h-0.356L151.167,3.353z"/>
	<path fill="#D7241E" stroke="#000000" stroke-width="0.1357" stroke-linecap="round" stroke-linejoin="round" d="M152.819,34.588
		l-2.184-0.025c0,0,0.954,0.939,1.545,1.476c0.628,0.572,3.368,3.162,3.368,3.162L152.819,34.588z"/>
	
		<line fill="none" stroke="#81817D" stroke-width="0.4014" stroke-linecap="round" stroke-linejoin="round" x1="150.881" y1="13.126" x2="143.319" y2="21.582"/>
	<path fill="none" stroke="#81817D" stroke-width="0.4014" stroke-linecap="round" stroke-linejoin="round" d="M150.695,30.614
		c0,0,3.704,7.077,6.343,10.665"/>
</g>
<g>
	<path d="M9.155,21.862c0,0.637,0.108,1.18,0.325,1.63s0.52,0.818,0.908,1.105c0.388,0.288,0.834,0.497,1.338,0.629
		s1.051,0.198,1.642,0.198c0.636,0,1.179-0.073,1.629-0.221c0.45-0.147,0.814-0.337,1.094-0.57c0.28-0.233,0.481-0.5,0.605-0.803
		c0.124-0.303,0.186-0.609,0.186-0.919c0-0.637-0.144-1.106-0.431-1.409c-0.288-0.303-0.602-0.516-0.942-0.641
		c-0.59-0.217-1.277-0.422-2.061-0.617c-0.784-0.193-1.75-0.446-2.898-0.756c-0.714-0.187-1.308-0.432-1.781-0.734
		c-0.473-0.303-0.85-0.64-1.129-1.012c-0.279-0.373-0.477-0.769-0.593-1.188c-0.117-0.418-0.175-0.846-0.175-1.28
		c0-0.838,0.175-1.563,0.524-2.177c0.349-0.613,0.811-1.121,1.385-1.524c0.574-0.404,1.226-0.703,1.956-0.896
		s1.466-0.291,2.211-0.291c0.869,0,1.688,0.113,2.456,0.337c0.769,0.226,1.443,0.563,2.025,1.013
		c0.582,0.451,1.044,1.005,1.385,1.665c0.341,0.66,0.512,1.424,0.512,2.293h-2.91c-0.078-1.07-0.442-1.827-1.094-2.269
		c-0.651-0.443-1.482-0.664-2.491-0.664c-0.342,0-0.691,0.035-1.048,0.105c-0.357,0.069-0.683,0.186-0.978,0.349
		c-0.295,0.163-0.54,0.384-0.733,0.664c-0.194,0.28-0.291,0.628-0.291,1.048c0,0.59,0.182,1.051,0.546,1.385
		c0.365,0.334,0.842,0.586,1.432,0.757c0.062,0.015,0.306,0.081,0.733,0.198s0.904,0.245,1.432,0.384
		c0.527,0.14,1.043,0.276,1.548,0.408c0.504,0.132,0.865,0.229,1.083,0.291c0.543,0.171,1.016,0.404,1.42,0.699
		c0.403,0.295,0.741,0.632,1.013,1.012c0.271,0.38,0.473,0.788,0.605,1.222c0.131,0.435,0.198,0.869,0.198,1.304
		c0,0.931-0.19,1.727-0.571,2.386c-0.38,0.66-0.88,1.2-1.501,1.618c-0.621,0.419-1.327,0.726-2.118,0.919
		c-0.791,0.193-1.598,0.291-2.421,0.291c-0.947,0-1.839-0.116-2.677-0.35c-0.838-0.232-1.568-0.589-2.188-1.07
		c-0.621-0.48-1.117-1.098-1.49-1.851c-0.373-0.752-0.567-1.642-0.582-2.666L9.155,21.862L9.155,21.862z"/>
	<path d="M29.802,19.395c-0.109-0.745-0.408-1.308-0.896-1.688s-1.106-0.57-1.851-0.57c-0.342,0-0.707,0.058-1.094,0.174
		c-0.388,0.117-0.745,0.334-1.071,0.652c-0.326,0.318-0.598,0.761-0.815,1.327s-0.326,1.308-0.326,2.223
		c0,0.497,0.058,0.994,0.174,1.49c0.117,0.497,0.303,0.939,0.559,1.327c0.256,0.388,0.586,0.703,0.99,0.943
		c0.403,0.24,0.892,0.36,1.467,0.36c0.775,0,1.416-0.24,1.92-0.721c0.504-0.481,0.818-1.156,0.943-2.025h2.654
		c-0.249,1.567-0.842,2.766-1.781,3.596c-0.939,0.831-2.185,1.246-3.736,1.246c-0.947,0-1.781-0.159-2.503-0.477
		c-0.722-0.318-1.331-0.752-1.827-1.303c-0.497-0.551-0.873-1.207-1.129-1.967c-0.256-0.76-0.384-1.583-0.384-2.467
		c0-0.9,0.124-1.746,0.372-2.538c0.249-0.792,0.621-1.478,1.118-2.061c0.497-0.583,1.113-1.04,1.851-1.374
		c0.737-0.333,1.603-0.5,2.596-0.5c0.698,0,1.362,0.089,1.991,0.268c0.628,0.179,1.187,0.446,1.676,0.803s0.888,0.807,1.199,1.35
		c0.311,0.543,0.497,1.188,0.559,1.932L29.802,19.395L29.802,19.395z"/>
	<path d="M34.342,10.781h2.654v6.169h0.047c0.326-0.542,0.81-0.997,1.455-1.361c0.644-0.365,1.362-0.547,2.153-0.547
		c1.319,0,2.359,0.341,3.12,1.024c0.76,0.683,1.141,1.708,1.141,3.073v8.264h-2.654v-7.565c-0.031-0.947-0.233-1.633-0.605-2.06
		c-0.372-0.427-0.955-0.641-1.746-0.641c-0.45,0-0.854,0.082-1.21,0.245c-0.357,0.163-0.66,0.388-0.908,0.675
		s-0.442,0.625-0.582,1.013c-0.14,0.388-0.209,0.799-0.209,1.234v7.1h-2.654V10.781z"/>
	<path d="M57.506,24.726c0,0.326,0.042,0.559,0.128,0.699c0.085,0.14,0.252,0.209,0.5,0.209c0.078,0,0.171,0,0.28,0
		c0.108,0,0.233-0.015,0.373-0.047v1.84c-0.093,0.031-0.214,0.066-0.361,0.104c-0.148,0.039-0.299,0.074-0.454,0.105
		c-0.156,0.031-0.311,0.054-0.466,0.07c-0.155,0.015-0.288,0.023-0.396,0.023c-0.543,0-0.993-0.109-1.35-0.326
		c-0.357-0.217-0.59-0.597-0.698-1.141c-0.528,0.512-1.176,0.885-1.944,1.117c-0.768,0.233-1.51,0.349-2.223,0.349
		c-0.543,0-1.063-0.073-1.56-0.221c-0.497-0.147-0.936-0.365-1.315-0.652c-0.38-0.287-0.683-0.652-0.908-1.094
		s-0.338-0.958-0.338-1.548c0-0.745,0.136-1.35,0.408-1.815s0.629-0.83,1.071-1.094c0.443-0.264,0.939-0.454,1.49-0.57
		c0.551-0.116,1.105-0.205,1.665-0.268c0.48-0.093,0.939-0.159,1.373-0.198c0.434-0.038,0.818-0.105,1.152-0.198
		c0.333-0.093,0.598-0.236,0.792-0.431c0.193-0.193,0.291-0.485,0.291-0.873c0-0.341-0.082-0.62-0.244-0.838
		c-0.163-0.217-0.365-0.384-0.605-0.5c-0.241-0.116-0.509-0.194-0.803-0.233c-0.295-0.038-0.574-0.058-0.838-0.058
		c-0.746,0-1.358,0.155-1.839,0.465c-0.481,0.311-0.753,0.792-0.815,1.443h-2.654c0.047-0.776,0.233-1.419,0.559-1.932
		c0.326-0.513,0.741-0.924,1.246-1.234c0.504-0.31,1.074-0.527,1.711-0.652c0.636-0.125,1.288-0.187,1.956-0.187
		c0.589,0,1.172,0.062,1.746,0.187c0.574,0.125,1.09,0.326,1.548,0.605s0.827,0.641,1.106,1.083
		c0.279,0.443,0.419,0.982,0.419,1.619L57.506,24.726L57.506,24.726z M54.852,21.374c-0.403,0.264-0.9,0.423-1.49,0.478
		c-0.59,0.054-1.18,0.136-1.769,0.245c-0.28,0.046-0.551,0.112-0.815,0.197c-0.264,0.085-0.497,0.202-0.699,0.35
		c-0.202,0.147-0.36,0.341-0.477,0.582c-0.116,0.24-0.174,0.532-0.174,0.873c0,0.295,0.085,0.543,0.256,0.745
		s0.376,0.361,0.617,0.477c0.24,0.116,0.504,0.198,0.791,0.245s0.547,0.069,0.78,0.069c0.295,0,0.613-0.039,0.955-0.116
		c0.341-0.078,0.663-0.21,0.966-0.396c0.302-0.186,0.555-0.422,0.756-0.709s0.303-0.641,0.303-1.059V21.374z"/>
	<path d="M68.213,19.395c-0.108-0.745-0.407-1.308-0.896-1.688c-0.489-0.38-1.105-0.57-1.851-0.57c-0.341,0-0.706,0.058-1.094,0.174
		c-0.388,0.117-0.745,0.334-1.071,0.652c-0.326,0.318-0.598,0.761-0.814,1.327c-0.217,0.566-0.326,1.308-0.326,2.223
		c0,0.497,0.059,0.994,0.175,1.49c0.116,0.497,0.302,0.939,0.558,1.327c0.256,0.388,0.585,0.703,0.99,0.943
		c0.403,0.24,0.892,0.36,1.466,0.36c0.776,0,1.417-0.24,1.92-0.721c0.504-0.481,0.818-1.156,0.943-2.025h2.654
		c-0.249,1.567-0.842,2.766-1.781,3.596c-0.939,0.831-2.185,1.246-3.736,1.246c-0.947,0-1.781-0.159-2.503-0.477
		c-0.721-0.318-1.331-0.752-1.827-1.303c-0.497-0.551-0.873-1.207-1.129-1.967c-0.256-0.76-0.384-1.583-0.384-2.467
		c0-0.9,0.124-1.746,0.373-2.538c0.248-0.792,0.621-1.478,1.117-2.061c0.497-0.583,1.114-1.04,1.851-1.374
		c0.737-0.333,1.603-0.5,2.596-0.5c0.699,0,1.362,0.089,1.991,0.268c0.628,0.179,1.187,0.446,1.676,0.803
		c0.489,0.357,0.888,0.807,1.199,1.35c0.311,0.543,0.497,1.188,0.559,1.932L68.213,19.395L68.213,19.395z"/>
	<path d="M72.754,10.781h2.654v6.169h0.046c0.326-0.542,0.811-0.997,1.456-1.361c0.644-0.365,1.362-0.547,2.153-0.547
		c1.319,0,2.359,0.341,3.12,1.024c0.76,0.683,1.141,1.708,1.141,3.073v8.264h-2.654v-7.565c-0.031-0.947-0.232-1.633-0.605-2.06
		c-0.372-0.427-0.954-0.641-1.746-0.641c-0.45,0-0.853,0.082-1.21,0.245c-0.356,0.163-0.659,0.388-0.908,0.675
		c-0.249,0.287-0.442,0.625-0.582,1.013c-0.14,0.388-0.209,0.799-0.209,1.234v7.1h-2.654V10.781L72.754,10.781z"/>
	<path d="M85.906,10.781h2.654v9.452l4.795-4.865h3.259l-4.609,4.423l5.052,7.612h-3.236l-3.678-5.843l-1.583,1.536v4.307h-2.654
		L85.906,10.781L85.906,10.781z"/>
	<path d="M98.127,10.781h2.654v16.622h-2.654V10.781z"/>
	<path d="M113.957,27.403h-2.607v-1.676h-0.046c-0.326,0.605-0.812,1.09-1.455,1.455c-0.645,0.365-1.3,0.547-1.967,0.547
		c-1.583,0-2.728-0.392-3.434-1.175c-0.706-0.783-1.059-1.967-1.059-3.55v-7.636h2.654v7.38c0,1.055,0.202,1.8,0.605,2.235
		c0.404,0.435,0.97,0.652,1.7,0.652c0.559,0,1.024-0.085,1.397-0.256c0.372-0.171,0.675-0.399,0.908-0.687
		c0.233-0.287,0.4-0.632,0.5-1.036c0.101-0.403,0.151-0.838,0.151-1.304v-6.984h2.654L113.957,27.403L113.957,27.403z"/>
	<path d="M116.54,10.781h2.654v6.146h0.046c0.187-0.294,0.411-0.559,0.675-0.791c0.264-0.233,0.554-0.431,0.873-0.594
		c0.318-0.163,0.651-0.287,1.001-0.372c0.349-0.085,0.694-0.128,1.036-0.128c0.946,0,1.773,0.167,2.479,0.5
		c0.706,0.334,1.292,0.792,1.757,1.374c0.466,0.582,0.815,1.261,1.048,2.037c0.233,0.776,0.35,1.606,0.35,2.491
		c0,0.807-0.105,1.59-0.314,2.351s-0.528,1.432-0.955,2.014c-0.427,0.582-0.966,1.047-1.618,1.396s-1.42,0.524-2.305,0.524
		c-0.404,0-0.811-0.027-1.222-0.082c-0.412-0.054-0.803-0.159-1.175-0.314c-0.373-0.155-0.71-0.357-1.012-0.605
		c-0.303-0.248-0.555-0.573-0.757-0.978h-0.046v1.653h-2.514L116.54,10.781L116.54,10.781z M125.805,21.397
		c0-0.543-0.07-1.071-0.21-1.583c-0.14-0.512-0.349-0.965-0.628-1.361c-0.28-0.396-0.629-0.714-1.048-0.955s-0.9-0.361-1.443-0.361
		c-1.117,0-1.959,0.388-2.525,1.164c-0.567,0.777-0.85,1.809-0.85,3.097c0,0.605,0.074,1.168,0.221,1.688
		c0.147,0.52,0.369,0.966,0.664,1.338s0.647,0.667,1.059,0.885c0.411,0.218,0.888,0.326,1.432,0.326
		c0.605,0,1.118-0.124,1.537-0.373c0.419-0.248,0.764-0.57,1.036-0.966c0.271-0.396,0.465-0.846,0.583-1.35
		C125.747,22.441,125.805,21.925,125.805,21.397z"/>
	<path d="M9.155,46.741c0,0.637,0.108,1.18,0.325,1.629c0.217,0.45,0.52,0.819,0.908,1.106c0.388,0.287,0.834,0.497,1.338,0.628
		s1.051,0.198,1.642,0.198c0.636,0,1.179-0.073,1.629-0.221c0.45-0.147,0.814-0.338,1.094-0.57c0.28-0.233,0.481-0.501,0.605-0.803
		c0.124-0.303,0.186-0.609,0.186-0.919c0-0.636-0.144-1.105-0.431-1.408c-0.288-0.303-0.602-0.516-0.942-0.641
		c-0.59-0.218-1.277-0.423-2.061-0.617s-1.75-0.446-2.898-0.757c-0.714-0.187-1.308-0.431-1.781-0.733s-0.85-0.64-1.129-1.012
		c-0.279-0.373-0.477-0.769-0.593-1.188c-0.117-0.419-0.175-0.846-0.175-1.28c0-0.839,0.175-1.563,0.524-2.177
		c0.349-0.613,0.811-1.121,1.385-1.524c0.574-0.404,1.226-0.702,1.956-0.896c0.729-0.193,1.466-0.291,2.211-0.291
		c0.869,0,1.688,0.113,2.456,0.337c0.769,0.226,1.443,0.563,2.025,1.013c0.582,0.451,1.044,1.005,1.385,1.665
		c0.341,0.66,0.512,1.424,0.512,2.293h-2.91c-0.078-1.07-0.442-1.827-1.094-2.27c-0.651-0.442-1.482-0.664-2.491-0.664
		c-0.342,0-0.691,0.035-1.048,0.105c-0.357,0.069-0.683,0.186-0.978,0.349c-0.295,0.163-0.54,0.384-0.733,0.664
		c-0.194,0.279-0.291,0.628-0.291,1.047c0,0.59,0.182,1.052,0.546,1.385c0.365,0.334,0.842,0.586,1.432,0.757
		c0.062,0.016,0.306,0.082,0.733,0.198c0.427,0.116,0.904,0.244,1.432,0.384c0.527,0.141,1.043,0.276,1.548,0.408
		c0.504,0.132,0.865,0.229,1.083,0.291c0.543,0.172,1.016,0.404,1.42,0.699c0.403,0.295,0.741,0.632,1.013,1.012
		c0.271,0.381,0.473,0.788,0.605,1.222c0.131,0.435,0.198,0.87,0.198,1.304c0,0.931-0.19,1.727-0.571,2.386
		c-0.38,0.66-0.88,1.199-1.501,1.618c-0.621,0.418-1.327,0.726-2.118,0.92c-0.791,0.193-1.598,0.29-2.421,0.29
		c-0.947,0-1.839-0.116-2.677-0.349c-0.838-0.233-1.568-0.59-2.188-1.071c-0.621-0.48-1.117-1.098-1.49-1.851
		c-0.373-0.752-0.567-1.641-0.582-2.665L9.155,46.741L9.155,46.741z"/>
	<path d="M20.468,40.247h2.001v-3.608h2.654v3.608h2.398v1.978h-2.398v6.425c0,0.279,0.012,0.52,0.035,0.721
		c0.023,0.202,0.078,0.373,0.163,0.512c0.085,0.14,0.213,0.245,0.384,0.314c0.17,0.069,0.403,0.104,0.698,0.104
		c0.186,0,0.372-0.004,0.559-0.011c0.186-0.008,0.372-0.036,0.559-0.082v2.049c-0.295,0.031-0.582,0.062-0.861,0.093
		c-0.28,0.031-0.567,0.046-0.861,0.046c-0.698,0-1.261-0.066-1.688-0.198c-0.427-0.132-0.761-0.326-1.001-0.583
		c-0.24-0.256-0.403-0.578-0.489-0.966c-0.085-0.388-0.136-0.83-0.151-1.327v-7.101h-2.001V40.247z"/>
	<path d="M29.36,49.139h3.236v3.143H29.36V49.139z"/>
	<path d="M53.618,52.281h-1.862l-0.442-1.955c-0.776,0.885-1.552,1.498-2.328,1.839c-0.776,0.341-1.668,0.512-2.679,0.512
		c-1.242,0-2.355-0.229-3.34-0.686c-0.985-0.458-1.82-1.083-2.502-1.875c-0.684-0.792-1.207-1.715-1.571-2.771
		c-0.365-1.054-0.547-2.18-0.547-3.375c0-1.179,0.182-2.297,0.547-3.353c0.364-1.054,0.888-1.978,1.571-2.769
		c0.683-0.792,1.517-1.42,2.502-1.887c0.985-0.465,2.099-0.698,3.34-0.698c0.902,0,1.759,0.12,2.574,0.361
		c0.814,0.241,1.54,0.598,2.176,1.071c0.636,0.474,1.164,1.067,1.583,1.781c0.419,0.714,0.683,1.537,0.791,2.468h-2.839
		c-0.078-0.543-0.245-1.021-0.5-1.432c-0.256-0.412-0.579-0.757-0.966-1.037c-0.388-0.279-0.823-0.489-1.304-0.628
		c-0.481-0.141-0.986-0.21-1.515-0.21c-0.884,0-1.649,0.179-2.293,0.535c-0.644,0.357-1.168,0.835-1.571,1.432
		c-0.404,0.598-0.702,1.277-0.896,2.037c-0.194,0.761-0.291,1.537-0.291,2.328c0,0.792,0.097,1.568,0.291,2.328
		c0.194,0.76,0.493,1.439,0.896,2.037c0.404,0.597,0.928,1.075,1.571,1.431c0.644,0.357,1.409,0.536,2.293,0.536
		c0.746,0.016,1.406-0.082,1.98-0.291c0.574-0.21,1.059-0.512,1.455-0.908c0.396-0.396,0.694-0.88,0.896-1.455
		s0.31-1.211,0.326-1.909h-4.425v-2.211h7.078L53.618,52.281L53.618,52.281z"/>
	<path d="M66.212,49.604c0,0.326,0.042,0.559,0.128,0.698c0.084,0.14,0.251,0.21,0.5,0.21c0.077,0,0.17,0,0.279,0
		s0.234-0.016,0.373-0.047v1.839c-0.093,0.031-0.213,0.065-0.361,0.104c-0.148,0.04-0.299,0.074-0.454,0.105
		c-0.155,0.031-0.311,0.054-0.466,0.07c-0.155,0.016-0.287,0.023-0.396,0.023c-0.543,0-0.993-0.109-1.35-0.326
		s-0.59-0.597-0.699-1.141c-0.528,0.513-1.175,0.885-1.943,1.118c-0.769,0.233-1.51,0.349-2.223,0.349
		c-0.544,0-1.063-0.074-1.56-0.221c-0.497-0.148-0.935-0.365-1.315-0.652c-0.381-0.287-0.683-0.651-0.908-1.094
		c-0.225-0.442-0.338-0.958-0.338-1.548c0-0.745,0.136-1.351,0.407-1.816s0.629-0.83,1.071-1.094s0.938-0.454,1.49-0.571
		c0.551-0.116,1.105-0.205,1.665-0.267c0.48-0.094,0.938-0.159,1.373-0.198c0.434-0.038,0.818-0.104,1.152-0.198
		c0.333-0.093,0.598-0.236,0.792-0.431c0.193-0.193,0.291-0.484,0.291-0.873c0-0.341-0.081-0.62-0.244-0.838
		c-0.163-0.217-0.365-0.384-0.605-0.5c-0.241-0.117-0.508-0.194-0.803-0.233c-0.295-0.039-0.575-0.058-0.838-0.058
		c-0.746,0-1.359,0.155-1.84,0.465c-0.481,0.311-0.752,0.792-0.814,1.443h-2.654c0.047-0.776,0.233-1.419,0.559-1.932
		c0.326-0.512,0.741-0.923,1.246-1.234c0.505-0.311,1.074-0.527,1.711-0.651c0.636-0.125,1.288-0.187,1.956-0.187
		c0.589,0,1.172,0.062,1.746,0.187s1.09,0.326,1.548,0.605c0.458,0.279,0.826,0.641,1.106,1.082
		c0.279,0.443,0.418,0.982,0.418,1.619V49.604z M63.558,46.252c-0.403,0.265-0.9,0.423-1.49,0.478s-1.179,0.136-1.769,0.244
		c-0.279,0.047-0.551,0.113-0.815,0.198c-0.263,0.085-0.496,0.202-0.698,0.349c-0.202,0.148-0.36,0.342-0.477,0.583
		s-0.175,0.532-0.175,0.873c0,0.295,0.085,0.543,0.256,0.745s0.376,0.361,0.617,0.477s0.504,0.197,0.792,0.244
		c0.287,0.046,0.547,0.07,0.78,0.07c0.294,0,0.613-0.038,0.955-0.117c0.341-0.077,0.663-0.209,0.965-0.396
		c0.303-0.187,0.555-0.422,0.757-0.71c0.202-0.287,0.303-0.641,0.303-1.059V46.252z"/>
	<path d="M68.865,35.661h2.654v16.621h-2.654V35.661z"/>
	<path d="M74.196,35.661h2.654v16.621h-2.654V35.661z"/>
	<path d="M81.529,46.951c0,0.466,0.066,0.917,0.198,1.35c0.132,0.435,0.33,0.815,0.594,1.141c0.264,0.326,0.597,0.585,1.001,0.78
		c0.403,0.194,0.885,0.291,1.444,0.291c0.776,0,1.4-0.167,1.874-0.5c0.473-0.333,0.826-0.834,1.059-1.501h2.514
		c-0.14,0.652-0.38,1.234-0.722,1.746c-0.341,0.512-0.753,0.943-1.234,1.292c-0.481,0.35-1.021,0.613-1.618,0.792
		c-0.598,0.178-1.222,0.268-1.874,0.268c-0.947,0-1.785-0.156-2.515-0.465c-0.729-0.311-1.346-0.746-1.851-1.304
		s-0.885-1.226-1.141-2.001c-0.256-0.777-0.384-1.63-0.384-2.562c0-0.853,0.136-1.664,0.408-2.432
		c0.271-0.768,0.659-1.444,1.164-2.025c0.504-0.583,1.113-1.043,1.827-1.386c0.714-0.341,1.521-0.512,2.421-0.512
		c0.946,0,1.796,0.198,2.549,0.594c0.753,0.396,1.377,0.919,1.875,1.571c0.496,0.652,0.857,1.401,1.083,2.247
		c0.225,0.846,0.283,1.719,0.174,2.619L81.529,46.951L81.529,46.951z M87.721,45.205c-0.031-0.419-0.12-0.823-0.267-1.211
		c-0.148-0.387-0.35-0.725-0.605-1.013c-0.256-0.287-0.567-0.52-0.932-0.698c-0.364-0.178-0.772-0.267-1.222-0.267
		c-0.466,0-0.889,0.082-1.269,0.244c-0.38,0.163-0.706,0.388-0.978,0.675c-0.271,0.288-0.489,0.625-0.651,1.013
		c-0.163,0.388-0.253,0.807-0.268,1.257H87.721z"/>
	<path d="M92.121,40.247h2.514v1.769l0.047,0.046c0.403-0.667,0.931-1.191,1.583-1.571s1.373-0.57,2.165-0.57
		c1.318,0,2.358,0.342,3.119,1.024c0.76,0.683,1.141,1.707,1.141,3.072v8.264h-2.654v-7.566c-0.031-0.946-0.233-1.633-0.605-2.06
		c-0.372-0.426-0.955-0.64-1.746-0.64c-0.45,0-0.854,0.082-1.21,0.244c-0.357,0.163-0.66,0.388-0.908,0.675
		c-0.249,0.288-0.443,0.625-0.583,1.013c-0.139,0.388-0.209,0.8-0.209,1.234v7.1h-2.654V40.247L92.121,40.247z"/>
	<path d="M108.01,48.897h0.812l0.857,2.599h0.013l0.826-2.599h0.772l-1.211,3.385h-0.838L108.01,48.897z"/>
	<path d="M113.293,52.373c-0.271,0-0.512-0.044-0.723-0.134c-0.212-0.089-0.391-0.212-0.537-0.369
		c-0.146-0.158-0.257-0.346-0.334-0.564c-0.076-0.218-0.114-0.458-0.114-0.72c0-0.257,0.038-0.495,0.114-0.713
		c0.077-0.219,0.188-0.406,0.334-0.563c0.146-0.157,0.325-0.28,0.537-0.37c0.211-0.089,0.453-0.134,0.723-0.134
		c0.271,0,0.512,0.044,0.724,0.134c0.212,0.089,0.391,0.213,0.537,0.37c0.146,0.157,0.257,0.345,0.333,0.563
		c0.077,0.218,0.115,0.456,0.115,0.713c0,0.263-0.038,0.502-0.115,0.72c-0.076,0.218-0.188,0.406-0.333,0.564
		c-0.146,0.157-0.325,0.28-0.537,0.369C113.805,52.328,113.564,52.373,113.293,52.373z M113.293,51.784
		c0.166,0,0.31-0.035,0.432-0.104c0.123-0.07,0.223-0.162,0.301-0.275c0.079-0.113,0.136-0.241,0.173-0.383
		c0.037-0.142,0.056-0.287,0.056-0.436c0-0.144-0.019-0.288-0.056-0.432c-0.037-0.145-0.094-0.271-0.173-0.383
		c-0.079-0.111-0.179-0.202-0.301-0.271c-0.122-0.07-0.266-0.105-0.432-0.105c-0.166,0-0.31,0.035-0.432,0.105
		c-0.122,0.069-0.222,0.16-0.301,0.271c-0.079,0.112-0.137,0.239-0.174,0.383c-0.037,0.144-0.055,0.288-0.055,0.432
		c0,0.149,0.019,0.294,0.055,0.436c0.038,0.143,0.095,0.27,0.174,0.383c0.079,0.113,0.179,0.205,0.301,0.275
		C112.983,51.749,113.127,51.784,113.293,51.784z"/>
	<path d="M115.624,48.897h0.707v0.497l0.013,0.013c0.114-0.188,0.262-0.335,0.446-0.442c0.183-0.106,0.386-0.16,0.609-0.16
		c0.371,0,0.664,0.096,0.877,0.288s0.321,0.48,0.321,0.864v2.324h-0.747v-2.128c-0.009-0.266-0.066-0.459-0.17-0.58
		c-0.105-0.12-0.269-0.18-0.491-0.18c-0.126,0-0.24,0.023-0.341,0.069c-0.1,0.046-0.186,0.109-0.255,0.19
		c-0.07,0.081-0.125,0.175-0.164,0.285c-0.039,0.109-0.059,0.225-0.059,0.347v1.997h-0.747L115.624,48.897L115.624,48.897z"/>
	<path d="M121.362,48.458c0.157,0,0.31-0.013,0.458-0.04c0.148-0.026,0.282-0.069,0.402-0.131c0.12-0.061,0.222-0.14,0.308-0.235
		s0.141-0.214,0.167-0.354h0.609v4.583h-0.818v-3.234h-1.126V48.458L121.362,48.458z"/>
	<path d="M125.773,52.373c-0.231,0-0.446-0.032-0.645-0.098c-0.199-0.066-0.37-0.16-0.514-0.285
		c-0.145-0.125-0.256-0.276-0.337-0.455c-0.081-0.179-0.121-0.38-0.121-0.602c0-0.289,0.075-0.531,0.226-0.727
		c0.151-0.197,0.355-0.328,0.613-0.393V49.8c-0.21-0.079-0.371-0.2-0.481-0.363c-0.111-0.164-0.167-0.357-0.167-0.58
		c0-0.393,0.123-0.699,0.37-0.919c0.246-0.22,0.599-0.33,1.057-0.33c0.459,0,0.812,0.11,1.058,0.33
		c0.246,0.221,0.37,0.527,0.37,0.919c0,0.223-0.056,0.417-0.167,0.58c-0.112,0.163-0.272,0.285-0.481,0.363v0.013
		c0.258,0.065,0.461,0.196,0.612,0.393c0.15,0.195,0.226,0.438,0.226,0.727c0,0.222-0.04,0.423-0.121,0.602
		c-0.082,0.179-0.194,0.331-0.337,0.455c-0.144,0.125-0.315,0.22-0.514,0.285C126.22,52.341,126.005,52.373,125.773,52.373z
		 M125.773,51.784c0.25,0,0.457-0.074,0.622-0.223c0.166-0.148,0.249-0.357,0.249-0.628c0-0.253-0.083-0.451-0.249-0.593
		c-0.166-0.142-0.373-0.213-0.622-0.213c-0.249,0-0.456,0.071-0.622,0.213c-0.166,0.142-0.249,0.339-0.249,0.593
		c0,0.271,0.083,0.48,0.249,0.628C125.317,51.71,125.525,51.784,125.773,51.784z M125.773,48.196c-0.201,0-0.371,0.06-0.51,0.18
		c-0.14,0.121-0.209,0.294-0.209,0.521c0,0.218,0.068,0.385,0.203,0.501c0.136,0.115,0.308,0.173,0.517,0.173
		c0.21,0,0.382-0.058,0.518-0.173c0.135-0.116,0.203-0.283,0.203-0.501c0-0.227-0.07-0.4-0.209-0.521
		C126.144,48.256,125.974,48.196,125.773,48.196z"/>
	<path d="M130.386,48.857c-0.018-0.188-0.084-0.338-0.2-0.455c-0.116-0.115-0.272-0.174-0.468-0.174
		c-0.135,0-0.252,0.025-0.351,0.076c-0.099,0.05-0.181,0.116-0.249,0.2c-0.067,0.083-0.122,0.178-0.164,0.285
		c-0.041,0.107-0.075,0.219-0.101,0.337c-0.026,0.118-0.045,0.234-0.056,0.35c-0.011,0.116-0.021,0.224-0.029,0.324l0.013,0.013
		c0.1-0.184,0.239-0.32,0.416-0.409s0.368-0.134,0.573-0.134c0.227,0,0.43,0.039,0.609,0.118s0.331,0.187,0.455,0.324
		c0.125,0.138,0.22,0.3,0.285,0.488c0.065,0.187,0.099,0.39,0.099,0.608c0,0.222-0.037,0.43-0.108,0.619
		c-0.072,0.19-0.176,0.356-0.311,0.498c-0.135,0.142-0.297,0.252-0.484,0.331c-0.188,0.079-0.395,0.117-0.622,0.117
		c-0.336,0-0.612-0.062-0.828-0.186c-0.216-0.124-0.386-0.294-0.51-0.51c-0.125-0.216-0.211-0.47-0.259-0.759
		c-0.048-0.291-0.072-0.604-0.072-0.94c0-0.275,0.029-0.552,0.088-0.831c0.059-0.279,0.156-0.534,0.291-0.763
		c0.135-0.229,0.313-0.416,0.534-0.56c0.22-0.144,0.492-0.216,0.815-0.216c0.183,0,0.355,0.03,0.517,0.091
		c0.161,0.062,0.305,0.146,0.429,0.255c0.125,0.109,0.226,0.24,0.304,0.393c0.079,0.153,0.123,0.323,0.131,0.51H130.386
		L130.386,48.857z M129.665,51.751c0.136,0,0.253-0.027,0.354-0.082c0.1-0.054,0.185-0.125,0.252-0.212
		c0.068-0.088,0.118-0.189,0.15-0.305c0.033-0.115,0.049-0.234,0.049-0.356c0-0.122-0.017-0.24-0.049-0.354s-0.083-0.213-0.15-0.298
		c-0.068-0.085-0.152-0.153-0.252-0.206c-0.1-0.052-0.218-0.079-0.354-0.079c-0.135,0-0.254,0.025-0.356,0.075
		c-0.103,0.051-0.189,0.118-0.258,0.204c-0.07,0.085-0.123,0.185-0.158,0.297c-0.035,0.114-0.052,0.234-0.052,0.36
		c0,0.126,0.018,0.247,0.052,0.36c0.035,0.114,0.087,0.215,0.158,0.305c0.069,0.09,0.156,0.16,0.258,0.212
		C129.411,51.725,129.53,51.751,129.665,51.751z"/>
	<path d="M134.927,52.281h-3.129c0.004-0.379,0.096-0.711,0.274-0.995c0.18-0.283,0.424-0.53,0.733-0.739
		c0.148-0.109,0.304-0.215,0.465-0.317c0.162-0.103,0.31-0.213,0.446-0.331c0.135-0.118,0.247-0.246,0.333-0.384
		c0.087-0.137,0.133-0.295,0.138-0.475c0-0.083-0.01-0.171-0.03-0.265c-0.02-0.094-0.058-0.181-0.115-0.262
		c-0.057-0.081-0.135-0.148-0.235-0.203c-0.1-0.054-0.231-0.082-0.393-0.082c-0.148,0-0.272,0.029-0.37,0.088
		c-0.098,0.059-0.177,0.14-0.235,0.242c-0.059,0.103-0.103,0.224-0.131,0.364c-0.028,0.14-0.045,0.291-0.049,0.451h-0.747
		c0-0.252,0.034-0.487,0.101-0.704c0.068-0.216,0.169-0.402,0.304-0.56c0.136-0.157,0.3-0.28,0.495-0.371
		c0.194-0.089,0.42-0.134,0.678-0.134c0.279,0,0.513,0.046,0.701,0.138c0.188,0.091,0.339,0.207,0.455,0.347
		c0.115,0.14,0.197,0.291,0.246,0.455c0.048,0.163,0.072,0.319,0.072,0.468c0,0.184-0.028,0.349-0.085,0.497
		c-0.057,0.148-0.133,0.285-0.229,0.409c-0.096,0.125-0.205,0.239-0.327,0.344c-0.123,0.105-0.249,0.203-0.38,0.295
		c-0.13,0.092-0.262,0.179-0.393,0.263c-0.131,0.083-0.251,0.165-0.363,0.248c-0.111,0.084-0.208,0.169-0.292,0.259
		s-0.14,0.185-0.17,0.285h2.232V52.281L134.927,52.281z"/>
</g>
</svg>
